<svg xmlns="http://www.w3.org/2000/svg" version="1.1" xmlns:xlink="http://www.w3.org/1999/xlink" xmlns:svgjs="http://svgjs.dev/svgjs" width="1440" height="560" preserveAspectRatio="none" viewBox="0 0 1440 560"><g mask="url(&quot;#SvgjsMask2006&quot;)" fill="none"><path d="M156.44 588.27L283.75 661.77L283.75 808.77L156.44 882.27L29.13 808.77L29.13 661.77zM538.37 367.77L665.68 441.27L665.68 588.27L538.37 661.77L411.06 588.27L411.06 441.27zM792.99 367.77L920.3 441.27L920.3 588.27L792.99 661.77L665.68 588.27L665.68 441.27z" stroke="rgba(0, 0, 0, 0)" stroke-width="2"></path><path d="M141.74 588.27 a14.7 14.7 0 1 0 29.4 0 a14.7 14.7 0 1 0 -29.4 0zM269.05 661.77 a14.7 14.7 0 1 0 29.4 0 a14.7 14.7 0 1 0 -29.4 0zM269.05 808.77 a14.7 14.7 0 1 0 29.4 0 a14.7 14.7 0 1 0 -29.4 0zM141.74 882.27 a14.7 14.7 0 1 0 29.4 0 a14.7 14.7 0 1 0 -29.4 0zM14.43 808.77 a14.7 14.7 0 1 0 29.4 0 a14.7 14.7 0 1 0 -29.4 0zM14.43 661.77 a14.7 14.7 0 1 0 29.4 0 a14.7 14.7 0 1 0 -29.4 0zM523.67 367.77 a14.7 14.7 0 1 0 29.4 0 a14.7 14.7 0 1 0 -29.4 0zM650.98 441.27 a14.7 14.7 0 1 0 29.4 0 a14.7 14.7 0 1 0 -29.4 0zM650.98 588.27 a14.7 14.7 0 1 0 29.4 0 a14.7 14.7 0 1 0 -29.4 0zM523.67 661.77 a14.7 14.7 0 1 0 29.4 0 a14.7 14.7 0 1 0 -29.4 0zM396.36 588.27 a14.7 14.7 0 1 0 29.4 0 a14.7 14.7 0 1 0 -29.4 0zM396.36 441.27 a14.7 14.7 0 1 0 29.4 0 a14.7 14.7 0 1 0 -29.4 0zM778.29 367.77 a14.7 14.7 0 1 0 29.4 0 a14.7 14.7 0 1 0 -29.4 0zM905.6 441.27 a14.7 14.7 0 1 0 29.4 0 a14.7 14.7 0 1 0 -29.4 0zM905.6 588.27 a14.7 14.7 0 1 0 29.4 0 a14.7 14.7 0 1 0 -29.4 0zM778.29 661.77 a14.7 14.7 0 1 0 29.4 0 a14.7 14.7 0 1 0 -29.4 0z" fill="rgba(0, 0, 0, 0)"></path><path d="M68.95 41.53L129.58 76.53L129.58 146.53L68.95 181.53L8.33 146.53L8.33 76.53zM8.33 146.53L68.95 181.53L68.95 251.53L8.33 286.53L-52.29 251.53L-52.29 181.53zM68.95 461.53L129.58 496.53L129.58 566.53L68.95 601.53L8.33 566.53L8.33 496.53zM190.2 41.53L250.82 76.53L250.82 146.53L190.2 181.53L129.58 146.53L129.58 76.53zM129.58 356.53L190.2 391.53L190.2 461.53L129.58 496.53L68.95 461.53L68.95 391.53zM250.82 -63.47L311.45 -28.47L311.45 41.53L250.82 76.53L190.2 41.53L190.2 -28.47zM250.82 356.53L311.45 391.53L311.45 461.53L250.82 496.53L190.2 461.53L190.2 391.53zM372.07 146.53L432.69 181.53L432.69 251.53L372.07 286.53L311.45 251.53L311.45 181.53zM432.69 461.53L493.32 496.53L493.32 566.53L432.69 601.53L372.07 566.53L372.07 496.53zM553.94 41.53L614.57 76.53L614.57 146.53L553.94 181.53L493.32 146.53L493.32 76.53zM675.19 41.53L735.81 76.53L735.81 146.53L675.19 181.53L614.57 146.53L614.57 76.53zM614.57 356.53L675.19 391.53L675.19 461.53L614.57 496.53L553.94 461.53L553.94 391.53zM796.44 461.53L857.06 496.53L857.06 566.53L796.44 601.53L735.81 566.53L735.81 496.53zM857.06 -63.47L917.68 -28.47L917.68 41.53L857.06 76.53L796.44 41.53L796.44 -28.47zM857.06 146.53L917.68 181.53L917.68 251.53L857.06 286.53L796.44 251.53L796.44 181.53zM917.68 251.53L978.31 286.53L978.31 356.53L917.68 391.53L857.06 356.53L857.06 286.53zM1038.93 41.53L1099.55 76.53L1099.55 146.53L1038.93 181.53L978.31 146.53L978.31 76.53zM1099.55 146.53L1160.18 181.53L1160.18 251.53L1099.55 286.53L1038.93 251.53L1038.93 181.53zM1099.55 356.53L1160.18 391.53L1160.18 461.53L1099.55 496.53L1038.93 461.53L1038.93 391.53zM1281.42 251.53L1342.05 286.53L1342.05 356.53L1281.42 391.53L1220.8 356.53L1220.8 286.53zM1220.8 356.53L1281.42 391.53L1281.42 461.53L1220.8 496.53L1160.18 461.53L1160.18 391.53zM1402.67 41.53L1463.29 76.53L1463.29 146.53L1402.67 181.53L1342.05 146.53L1342.05 76.53zM1402.67 461.53L1463.29 496.53L1463.29 566.53L1402.67 601.53L1342.05 566.53L1342.05 496.53z" stroke="url(&quot;#SvgjsLinearGradient2007&quot;)" stroke-width="2"></path></g><defs><mask id="SvgjsMask2006"><rect width="1440" height="560" fill="#ffffff"></rect></mask><linearGradient x1="220.03199999999998" y1="-220.02399999999997" x2="1219.9679999999998" y2="780.024" gradientUnits="userSpaceOnUse" id="SvgjsLinearGradient2007"><stop stop-color="#0e2a47" offset="0"></stop><stop stop-color="rgba(202, 207, 82, 1)" offset="0"></stop></linearGradient></defs></svg>