<svg height="376" version="1.1" width="260" xmlns="http://www.w3.org/2000/svg" id="svgSlxxhw1xy6" viewBox="0 0 260 376" preserveAspectRatio="xMidYMid meet"><desc>Created with Snap</desc><defs></defs><g token="svgSlxxhw1xy6" class="movieclip"><g token="9" transform="matrix(1,0,0,1,130,129)" style="opacity: 1; visibility: visible;" class="movieclip"><g token="1" transform="matrix(1,0,0,1,0,0)" class="shape"><path fill="rgba(255,255,255,0.247)" d="M 8 -8l-16 0l0 16.05l16 0l0 -16.05" style=""></path></g></g><g token="8" transform="matrix(1,0,0,1,130,249)" style="opacity: 1; visibility: visible;" class="movieclip"><g token="1" transform="matrix(1,0,0,1,0,0)" class="shape"><path fill="rgba(255,255,255,0.247)" d="M 8 -8l-16 0l0 16.05l16 0l0 -16.05" style=""></path></g></g><g token="7" transform="matrix(0.25,0,0,0.249,129.95,8.95)" style="opacity: 0; visibility: visible;" class="movieclip"><g token="1" transform="matrix(1,0,0,1,0,0)" class="shape"><path fill="rgba(255,255,255,0.247)" d="M 8 -8l-16 0l0 16.05l16 0l0 -16.05" style=""></path></g></g><g token="6" transform="matrix(1,0,0,1,250,249)" style="opacity: 1; visibility: visible;" class="movieclip"><g token="1" transform="matrix(1,0,0,1,0,0)" class="shape"><path fill="rgba(255,255,255,0.247)" d="M 8 -8l-16 0l0 16.05l16 0l0 -16.05" style=""></path></g></g><g token="5" transform="matrix(1,0,0,1,248,368)" style="opacity: 1; visibility: visible;" class="movieclip"><g token="1" transform="matrix(1,0,0,1,0,0)" class="shape"><path fill="rgba(255,255,255,0.247)" d="M 8 -8l-16 0l0 16.05l16 0l0 -16.05" style=""></path></g></g><g token="4" transform="matrix(1,0,0,1,8,248)" style="opacity: 1; visibility: visible;" class="movieclip"><g token="1" transform="matrix(1,0,0,1,0,0)" class="shape"><path fill="rgba(255,255,255,0.247)" d="M 8 -8l-16 0l0 16.05l16 0l0 -16.05" style=""></path></g></g><g token="3" transform="matrix(1,0,0,1,248,8)" style="opacity: 1; visibility: visible;" class="movieclip"><g token="1" transform="matrix(1,0,0,1,0,0)" class="shape"><path fill="rgba(255,255,255,0.247)" d="M 8 -8l-16 0l0 16.05l16 0l0 -16.05" style=""></path></g></g><g token="2" transform="matrix(0.25,0,0,0.249,247.95,127.95)" style="opacity: 0; visibility: visible;" class="movieclip"><g token="1" transform="matrix(1,0,0,1,0,0)" class="shape"><path fill="rgba(255,255,255,0.247)" d="M 8 -8l-16 0l0 16.05l16 0l0 -16.05" style=""></path></g></g><g token="1" transform="matrix(1,0,0,1,8,128)" style="opacity: 1; visibility: visible;" class="movieclip"><g token="1" transform="matrix(1,0,0,1,0,0)" class="shape"><path fill="rgba(255,255,255,0.247)" d="M 8 -8l-16 0l0 16.05l16 0l0 -16.05" style=""></path></g></g></g></svg>