<svg height="85" version="1.1" width="300" xmlns="http://www.w3.org/2000/svg" id="svgSly0jly0y0" viewBox="0 0 300 85" preserveAspectRatio="none"><desc>Created with Snap</desc><defs></defs><g token="svgSly0jly0y0" class="movieclip"><g token="22" transform="matrix(0.497,0,0,0.544,18.1,1.15)" class="shape"><path fill="#ffffff" d="M 384.6 86.15q-0.7 0.8 -2 0.8q-1.3 0 -2 -0.8q-0.65 -0.75 -0.65 -2.05l0 -8.85l-3.1 0l0 9.05q0 2.45 1.45 3.85q1.55 1.45 4.3 1.45q2.8 0 4.35 -1.45q1.45 -1.4 1.45 -3.85l0 -9.05l-3.1 0l0 8.85q0 1.3 -0.7 2.05" style=""></path></g><g token="21" transform="matrix(0.497,0,0,0.544,18.1,1.15)" class="shape"><path fill="#ffffff" d="M 401.2 83.75q0 -2 -1 -3.1q-1 -1.2 -2.85 -1.2q-2.05 0 -2.95 1.25l-0.15 -1.05l-2.7 0l0 9.7l3 0l0 -6.1q0.75 -1.15 1.95 -1.15q0.8 0 1.25 0.5q0.45 0.5 0.45 1.3l0 5.45l3 0l0 -5.6" style=""></path></g><g token="20" transform="matrix(0.497,0,0,0.544,-5.625,1.15)" class="shape"><path fill="#ffffff" d="M 454.95 79.65l-3 0l0 9.7l3 0l0 -9.7" style=""></path><path fill="#ffffff" d="M 455.2 76.55q0 -0.7 -0.5 -1.15q-0.45 -0.45 -1.25 -0.45q-0.75 0 -1.25 0.45q-0.5 0.45 -0.5 1.15q0 0.75 0.5 1.2q0.5 0.45 1.25 0.45q0.8 0 1.25 -0.45q0.5 -0.45 0.5 -1.2" style=""></path></g><g token="19" transform="matrix(0.497,0,0,0.544,18.1,1.15)" class="shape"><path fill="#ffffff" d="M 415.05 89.55l5.65 -9.9l-3.35 0l-2.35 4.7l-2.35 -4.7l-3.35 0l5.65 9.9l0.1 0" style=""></path></g><g token="18" transform="matrix(0.497,0,0,0.544,18.1,1.15)" class="shape"><path fill="#ffffff" d="M 421.3 84.5q0 2.2 1.45 3.6q1.45 1.45 3.85 1.45q2.75 0 4.4 -1.75l-2.05 -1.6q-0.75 1 -2.3 1q-2.25 0 -2.35 -1.95l7 0l0 -0.9q0 -2.1 -1.2 -3.45q-1.25 -1.45 -3.6 -1.45q-2.3 0 -3.75 1.45q-1.45 1.4 -1.45 3.6M 424.3 83.5q0.05 -0.85 0.6 -1.4q0.55 -0.55 1.5 -0.55q0.9 0 1.4 0.55q0.5 0.55 0.55 1.4l-4.05 0" style=""></path></g><g token="17" transform="matrix(0.497,0,0,0.544,-33.155,1.15)" class="shape"><path fill="#ffffff" d="M 542.7 82.25l0 -2.8q-2.05 0 -3 1.45l-0.2 -1.25l-2.65 0l0 9.7l3 0l0 -5.85q1.05 -1.25 2.6 -1.25l0.25 0" style=""></path></g><g token="16" transform="matrix(0.497,0,0,0.544,18.1,1.15)" class="shape"><path fill="#ffffff" d="M 442.5 80.3q-1.15 0.85 -1.15 2.3q0 1.15 0.8 1.8q0.8 0.6 2.55 1q1.75 0.4 1.75 1.1q0 0.85 -1.5 0.85q-1.55 0 -2.8 -1l-1.15 2q1.45 1.2 3.95 1.2q2.1 0 3.3 -0.9q1.2 -0.85 1.2 -2.35q0 -2.1 -3.25 -2.85q-1.15 -0.25 -1.45 -0.45q-0.4 -0.2 -0.4 -0.55q0 -0.8 1.35 -0.8q1.4 0 2.45 0.85l1.15 -2q-1.3 -1.05 -3.6 -1.05q-2.05 0 -3.2 0.85" style=""></path></g><g token="15" transform="matrix(0.497,0,0,0.544,18.1,1.15)" class="shape"><path fill="#ffffff" d="M 454.95 79.65l-3 0l0 9.7l3 0l0 -9.7" style=""></path><path fill="#ffffff" d="M 455.2 76.55q0 -0.7 -0.5 -1.15q-0.45 -0.45 -1.25 -0.45q-0.75 0 -1.25 0.45q-0.5 0.45 -0.5 1.15q0 0.75 0.5 1.2q0.5 0.45 1.25 0.45q0.8 0 1.25 -0.45q0.5 -0.45 0.5 -1.2" style=""></path></g><g token="14" transform="matrix(0.497,0,0,0.544,-25.197,1.15)" class="shape"><path fill="#ffffff" d="M 545.95 76.4l0 3.25l-1.85 0l0 2.35l1.85 0l0 3.7q0 1.8 1.1 2.85q1.1 1 3.05 1q1.25 0 2.35 -0.6l-0.75 -2.25q-0.6 0.3 -1.35 0.3q-1.4 0 -1.4 -1.3l0 -3.7l2.95 0l0 -2.35l-2.95 0l0 -3.25l-3 0" style=""></path></g><g token="13" transform="matrix(0.497,0,0,0.544,18.1,1.15)" class="shape"><path fill="#ffffff" d="M 469.6 93.75l8.05 -14.1l-3.35 0l-2.4 4.75l-2.35 -4.75l-3.35 0l4.1 7.25l-4.15 6.85l3.45 0" style=""></path></g><g token="12" transform="matrix(0.497,0,0,0.544,-16.492,1.15)" class="shape"><path fill="#ffffff" d="M 564.5 84.5q0 -2.15 -1.55 -3.6q-1.55 -1.45 -3.9 -1.45q-2.35 0 -3.9 1.45q-1.55 1.4 -1.55 3.6q0 2.2 1.55 3.6q1.55 1.45 3.9 1.45q2.35 0 3.9 -1.45q1.55 -1.45 1.55 -3.6M 557.3 82.65q0.7 -0.75 1.75 -0.75q1.05 0 1.75 0.75q0.65 0.7 0.65 1.85q0 1.15 -0.65 1.85q-0.7 0.75 -1.75 0.75q-1.05 0 -1.75 -0.75q-0.7 -0.75 -0.7 -1.85q0 -1.1 0.7 -1.85" style=""></path></g><g token="11" transform="matrix(0.497,0,0,0.544,18.1,1.15)" class="shape"><path fill="#ffffff" d="M 504.6 75.4q-0.8 -0.6 -2.35 -0.6q-1.9 0 -3.05 1.1q-1.1 1.1 -1.1 2.9l0 0.85l-1.8 0l0 2.35l1.8 0l0 7.35l3 0l0 -7.35l2.35 0l0 -2.35l-2.35 0l0 -1q0 -1.4 1.3 -1.4q0.75 0 1.15 0.4l1.05 -2.25" style=""></path></g><g token="10" transform="matrix(0.497,0,0,0.544,18.1,1.15)" class="shape"><path fill="#ffffff" d="M 522.3 79.9q0 -2.15 -1.55 -3.45q-1.45 -1.2 -3.7 -1.2l-6 0l0 14.1l3.1 0l0 -4.8l2.9 0q2.25 0 3.7 -1.2q1.55 -1.3 1.55 -3.45M 516.7 77.8q1.1 0 1.75 0.55q0.7 0.55 0.7 1.55q0 2.15 -2.45 2.15l-2.55 0l0 -4.25l2.55 0" style=""></path></g><g token="9" transform="matrix(0.497,0,0,0.544,3.129,1.15)" class="shape"><path fill="#ffffff" d="M 564.5 84.5q0 -2.15 -1.55 -3.6q-1.55 -1.45 -3.9 -1.45q-2.35 0 -3.9 1.45q-1.55 1.4 -1.55 3.6q0 2.2 1.55 3.6q1.55 1.45 3.9 1.45q2.35 0 3.9 -1.45q1.55 -1.45 1.55 -3.6M 557.3 82.65q0.7 -0.75 1.75 -0.75q1.05 0 1.75 0.75q0.65 0.7 0.65 1.85q0 1.15 -0.65 1.85q-0.7 0.75 -1.75 0.75q-1.05 0 -1.75 -0.75q-0.7 -0.75 -0.7 -1.85q0 -1.1 0.7 -1.85" style=""></path></g><g token="8" transform="matrix(0.497,0,0,0.544,18.1,1.15)" class="shape"><path fill="#ffffff" d="M 542.7 82.25l0 -2.8q-2.05 0 -3 1.45l-0.2 -1.25l-2.65 0l0 9.7l3 0l0 -5.85q1.05 -1.25 2.6 -1.25l0.25 0" style=""></path></g><g token="7" transform="matrix(0.497,0,0,0.544,18.1,1.15)" class="shape"><path fill="#ffffff" d="M 545.95 76.4l0 3.25l-1.85 0l0 2.35l1.85 0l0 3.7q0 1.8 1.1 2.85q1.1 1 3.05 1q1.25 0 2.35 -0.6l-0.75 -2.25q-0.6 0.3 -1.35 0.3q-1.4 0 -1.4 -1.3l0 -3.7l2.95 0l0 -2.35l-2.95 0l0 -3.25l-3 0" style=""></path></g><g token="6" transform="matrix(0.497,0,0,0.544,18.1,1.15)" class="shape"><path fill="#ffffff" d="M 564.5 84.5q0 -2.15 -1.55 -3.6q-1.55 -1.45 -3.9 -1.45q-2.35 0 -3.9 1.45q-1.55 1.4 -1.55 3.6q0 2.2 1.55 3.6q1.55 1.45 3.9 1.45q2.35 0 3.9 -1.45q1.55 -1.45 1.55 -3.6M 557.3 82.65q0.7 -0.75 1.75 -0.75q1.05 0 1.75 0.75q0.65 0.7 0.65 1.85q0 1.15 -0.65 1.85q-0.7 0.75 -1.75 0.75q-1.05 0 -1.75 -0.75q-0.7 -0.75 -0.7 -1.85q0 -1.1 0.7 -1.85" style=""></path></g><g token="5" transform="matrix(0.497,0,0,0.544,18.1,1.15)" class="shape"><path fill="#ffffff" d="M 358.2 93.6l1.6 0l8.8 -21.65l-1.6 0l-8.8 21.65" style=""></path></g><g token="4" transform="matrix(1,0,0,1,0,0)" class="shape"><path fill="rgba(0,0,0,0)" d="M 73.4 81.4l-2.25 -0.9l-46.5 -18.15l-19.65 -7.8l12.5 -29.9l36.7 37.7l18.3 18.15l0.9 0.9" stroke="#ffffff" style="stroke-width: 1;"></path></g><g token="3" transform="matrix(0.497,0,0,0.544,72.65,60)" style="opacity: 1; visibility: visible;" class="movieclip"><g token="6" transform="matrix(0.988,0,0,0.988,-125.8,-106.75)" class="shape"><path fill="#ffffff" d="M 160.8 113.3q-2.75 -2.15 -6.9 -3.35q-4.25 -1.2 -9.05 -1.2q-7.25 0 -11.7 4q-4.3 3.85 -4.3 9.9q0 5.15 3.05 8.35q3.55 3.8 11.8 5.5q4.1 0.8 5.7 1.7q1.35 0.75 1.35 1.95q0 3.25 -5.55 3.25q-3.2 0 -6.45 -1.4q-3.3 -1.35 -5.4 -3.65l-6 9.3q3.3 2.9 7.9 4.45q4.5 1.5 9.6 1.5q8 0 12.6 -3.95q4.5 -3.9 4.5 -10.55q0 -5.25 -3.1 -8.3q-3.45 -3.45 -11.85 -5.2q-4.1 -0.7 -5.65 -1.6q-1.25 -0.7 -1.25 -1.95q0 -3.1 4.7 -3.1q5.8 0 10.2 3.6l5.8 -9.25" style=""></path></g><g token="5" transform="matrix(0.988,0,0,0.988,-125.8,-106.75)" class="shape"><path fill="#ffffff" d="M 178.25 133.4q1.35 -1.9 3.7 -1.9q3.45 0 5 3.35l7.55 -5.5q-4.3 -7.15 -12.6 -7.15q-6.85 0 -11.4 4.45q-4.55 4.4 -4.55 11.15q0 6.75 4.55 11.2q4.55 4.45 11.4 4.45q8.3 0 12.6 -7.15l-7.4 -5.6q-1.7 3.4 -5.15 3.4q-2.35 0 -3.7 -1.85q-1.3 -1.75 -1.3 -4.45q0 -2.7 1.3 -4.4" style=""></path></g><g token="4" transform="matrix(0.988,0,0,0.988,-125.8,-106.75)" class="shape"><path fill="#ffffff" d="M 210.55 124.95l0 -16.9l-10.85 0l0 44.8l10.85 0l0 -17.9q0.5 -1.05 1.5 -1.75q1.15 -0.85 2.65 -0.85q1.6 0 2.5 1.15q0.9 1.05 0.9 2.9l0 16.45l10.85 0l0 -17.05q0 -6.35 -2.85 -9.95q-2.95 -3.65 -8.4 -3.65q-4.75 0 -7.15 2.75" style=""></path></g><g token="3" transform="matrix(0.986,0,0,0.988,-118.541,1.425)" class="shape"><path fill="#ffffff" d="M 260.2 28.35q0 -6.75 -4.6 -11.2q-4.65 -4.45 -11.65 -4.45q-6.95 0 -11.55 4.45q-4.6 4.45 -4.6 11.2q0 6.8 4.6 11.2q4.55 4.4 11.55 4.4q7.05 0 11.65 -4.4q4.6 -4.4 4.6 -11.2M 243.95 22.05q2.3 0 3.75 1.8q1.5 1.8 1.5 4.5q0 2.65 -1.5 4.45q-1.45 1.75 -3.75 1.75q-2.25 0 -3.7 -1.75q-1.45 -1.8 -1.45 -4.45q0 -2.7 1.45 -4.5q1.45 -1.8 3.7 -1.8" style=""></path></g><g token="2" transform="matrix(0.988,0,0,0.988,-81.949,1.425)" class="shape"><path fill="#ffffff" d="M 260.2 28.35q0 -6.75 -4.6 -11.2q-4.65 -4.45 -11.65 -4.45q-6.95 0 -11.55 4.45q-4.6 4.45 -4.6 11.2q0 6.8 4.6 11.2q4.55 4.4 11.55 4.4q7.05 0 11.65 -4.4q4.6 -4.4 4.6 -11.2M 243.95 22.05q2.3 0 3.75 1.8q1.5 1.8 1.5 4.5q0 2.65 -1.5 4.45q-1.45 1.75 -3.75 1.75q-2.25 0 -3.7 -1.75q-1.45 -1.8 -1.45 -4.45q0 -2.7 1.45 -4.5q1.45 -1.8 3.7 -1.8" style=""></path></g><g token="1" transform="matrix(0.988,0,0,0.988,-125.8,-106.75)" class="shape"><path fill="#ffffff" d="M 321.85 108.05l-10.85 0l0 44.8l10.85 0l0 -44.8" style=""></path></g></g><g token="2" transform="matrix(0.497,0,0,0.544,4.4,29.7)" style="opacity: 1; visibility: visible;" class="movieclip"><g token="8" transform="matrix(1,0,0,1,0,-52.6)" class="shape"><path fill="#ffffff" d="M 31.7 66.75q0 -5.6 -3.8 -8.85q-3.75 -3.15 -10.1 -3.15l-17.8 0l0 43.35l20.65 0q6.1 0 10.15 -3.35q4.35 -3.6 4.35 -9.6q0 -7.5 -6.9 -10.5q3.45 -2.95 3.45 -7.9M 11.2 64.95l5.05 0q1.85 0 2.95 0.9q1.15 0.95 1.15 2.55q0 1.6 -1.15 2.5q-1.1 0.9 -2.95 0.9l-5.05 0l0 -6.85M 11.2 80.25l8 0q2.05 0 3.25 1q1.3 1 1.3 2.8q0 1.85 -1.3 2.85q-1.2 1 -3.25 1l-8 0l0 -7.65" style=""></path></g><g token="7" transform="matrix(1,0,0,1,0,-52.6)" class="shape"><path fill="#ffffff" d="M 51.7 68.05l-10.85 0l0 17q0 6.45 2.75 10q2.8 3.65 8.15 3.65q5.55 0 8.1 -3.6l0.55 3l9.65 0l0 -30.05l-10.85 0l0 17.9q-1.45 2.6 -4.2 2.6q-1.65 0 -2.5 -1.1q-0.8 -1.1 -0.8 -2.95l0 -16.45" style=""></path></g><g token="6" transform="matrix(1,0,0,1,-151.1,-52.6)" class="shape"><path fill="#ffffff" d="M 252.9 70.6q-1.7 -1.5 -4.65 -2.35q-2.85 -0.8 -6.1 -0.8q-6.4 0 -10.05 2.85q-3.55 2.8 -3.55 7.55q0 3.45 2.35 5.45q2.2 1.9 7.15 3.1q2.5 0.65 3.4 1.25q0.7 0.5 0.7 1.35q0 1.6 -3 1.6q-4.45 0 -7.8 -2.9l-3.95 7.45q1.85 1.65 5.1 2.6q3.1 0.95 6.6 0.95q6.45 0 10.2 -2.9q3.7 -2.8 3.7 -7.55q0 -6.55 -8.85 -8.75q-2.95 -0.7 -3.9 -1.25q-0.85 -0.45 -0.85 -1.15q0 -1.6 2.75 -1.6q3.9 0 6.9 2.55l3.85 -7.45" style=""></path></g><g token="5" transform="matrix(1,0,0,1,0,-52.6)" class="shape"><path fill="#ffffff" d="M 119.35 68.05l-10.85 0l0 30.05l10.85 0l0 -30.05" style=""></path><path fill="#ffffff" d="M 120 58.65q0 -2.65 -1.7 -4.35q-1.75 -1.7 -4.4 -1.7q-2.65 0 -4.35 1.7q-1.7 1.7 -1.7 4.35q0 2.65 1.7 4.4q1.7 1.7 4.35 1.7q2.65 0 4.4 -1.7q1.7 -1.75 1.7 -4.4" style=""></path></g><g token="4" transform="matrix(1,0,0,1,0,-52.6)" class="shape"><path fill="#ffffff" d="M 154.3 71.1q-2.95 -3.65 -8.45 -3.65q-2.7 0 -4.75 1q-1.95 0.95 -3 2.6l-0.55 -3l-9.65 0l0 30.05l10.85 0l0 -17.95q0.5 -1.05 1.5 -1.7q1.15 -0.85 2.6 -0.85q1.6 0 2.55 1.15q0.9 1.05 0.9 2.9l0 16.45l10.85 0l0 -17.05q0 -6.4 -2.85 -9.95" style=""></path></g><g token="3" transform="matrix(1,0,0,1,0,-52.6)" class="shape"><path fill="#ffffff" d="M 178.7 67.45q-6.95 0 -11.4 4.45q-4.35 4.4 -4.35 11.2q0 6.85 4.4 11.2q4.45 4.4 11.55 4.4q8.3 0 13.1 -5.4l-7.4 -5.9q-0.85 1.15 -2.35 1.8q-1.45 0.7 -3.1 0.7q-2.45 0 -3.8 -1.15q-1.3 -1.1 -1.4 -3.1l19.05 0l0 -3.05q0 -6.55 -3.45 -10.65q-3.85 -4.5 -10.85 -4.5M 173.95 79.6q0.05 -1.9 1.2 -3.15q1.2 -1.35 3.1 -1.35q1.85 0 3 1.35q1 1.25 1.05 3.15l-8.35 0" style=""></path></g><g token="2" transform="matrix(0.998,0,0,1,-29.4,-52.6)" class="shape"><path fill="#ffffff" d="M 252.9 70.6q-1.7 -1.5 -4.65 -2.35q-2.85 -0.8 -6.1 -0.8q-6.4 0 -10.05 2.85q-3.55 2.8 -3.55 7.55q0 3.45 2.35 5.45q2.2 1.9 7.15 3.1q2.5 0.65 3.4 1.25q0.7 0.5 0.7 1.35q0 1.6 -3 1.6q-4.45 0 -7.8 -2.9l-3.95 7.45q1.85 1.65 5.1 2.6q3.1 0.95 6.6 0.95q6.45 0 10.2 -2.9q3.7 -2.8 3.7 -7.55q0 -6.55 -8.85 -8.75q-2.95 -0.7 -3.9 -1.25q-0.85 -0.45 -0.85 -1.15q0 -1.6 2.75 -1.6q3.9 0 6.9 2.55l3.85 -7.45" style=""></path></g><g token="1" transform="matrix(1,0,0,1,0,-52.6)" class="shape"><path fill="#ffffff" d="M 252.9 70.6q-1.7 -1.5 -4.65 -2.35q-2.85 -0.8 -6.1 -0.8q-6.4 0 -10.05 2.85q-3.55 2.8 -3.55 7.55q0 3.45 2.35 5.45q2.2 1.9 7.15 3.1q2.5 0.65 3.4 1.25q0.7 0.5 0.7 1.35q0 1.6 -3 1.6q-4.45 0 -7.8 -2.9l-3.95 7.45q1.85 1.65 5.1 2.6q3.1 0.95 6.6 0.95q6.45 0 10.2 -2.9q3.7 -2.8 3.7 -7.55q0 -6.55 -8.85 -8.75q-2.95 -0.7 -3.9 -1.25q-0.85 -0.45 -0.85 -1.15q0 -1.6 2.75 -1.6q3.9 0 6.9 2.55l3.85 -7.45" style=""></path></g></g><g token="1" transform="matrix(0.497,0,0,0.544,16.9,0.8)" style="opacity: 1; visibility: visible;" class="movieclip"><g token="5" transform="matrix(1,0,0,1,-99.05,0)" class="shape"><path fill="#ffffff" d="M 133.4 14.8q0 -6.8 -4.65 -10.95q-4.35 -3.85 -10.75 -3.85l-18.95 0l0 43.35l11.2 0l0 -13.75l7.75 0q6.4 0 10.75 -3.85q4.65 -4.15 4.65 -10.95M 110.25 9.6l6.65 0q2.3 0 3.7 1.35q1.45 1.4 1.45 3.85q0 2.55 -1.45 3.9q-1.35 1.3 -3.7 1.3l-6.65 0l0 -10.4" style=""></path></g><g token="4" transform="matrix(0.998,0,0,1,-189.95,0)" class="shape"><path fill="#ffffff" d="M 260.2 28.35q0 -6.75 -4.6 -11.2q-4.65 -4.45 -11.65 -4.45q-6.95 0 -11.55 4.45q-4.6 4.45 -4.6 11.2q0 6.8 4.6 11.2q4.55 4.4 11.55 4.4q7.05 0 11.65 -4.4q4.6 -4.4 4.6 -11.2M 243.95 22.05q2.3 0 3.75 1.8q1.5 1.8 1.5 4.5q0 2.65 -1.5 4.45q-1.45 1.75 -3.75 1.75q-2.25 0 -3.7 -1.75q-1.45 -1.8 -1.45 -4.45q0 -2.7 1.45 -4.5q1.45 -1.8 3.7 -1.8" style=""></path></g><g token="3" transform="matrix(1,0,0,1,-99.05,0)" class="shape"><path fill="#ffffff" d="M 194.1 23.4l0 -10.7q-2.85 0 -5.2 1.3q-2.15 1.15 -3.3 3.1l-0.65 -3.85l-9.6 0l0 30.1l10.85 0l0 -16.75q2.75 -3.2 7 -3.2l0.9 0" style=""></path></g><g token="2" transform="matrix(1,0,0,1,-99.05,0)" class="shape"><path fill="#ffffff" d="M 223.2 22.35l0 -9.1l-7.95 0l0 -9.7l-10.85 6.65l0 3.05l-5.05 0l0 9.1l5.05 0l0 8.9q0 6.05 3.5 9.4q3.5 3.3 9.65 3.3q3.95 0 7.2 -2l-2.6 -8.5q-1.6 0.8 -3.55 0.8q-1.55 0 -2.45 -0.85q-0.9 -0.85 -0.9 -2.25l0 -8.8l7.95 0" style=""></path></g><g token="1" transform="matrix(1,0,0,1,-99.05,0)" class="shape"><path fill="#ffffff" d="M 260.2 28.35q0 -6.75 -4.6 -11.2q-4.65 -4.45 -11.65 -4.45q-6.95 0 -11.55 4.45q-4.6 4.45 -4.6 11.2q0 6.8 4.6 11.2q4.55 4.4 11.55 4.4q7.05 0 11.65 -4.4q4.6 -4.4 4.6 -11.2M 243.95 22.05q2.3 0 3.75 1.8q1.5 1.8 1.5 4.5q0 2.65 -1.5 4.45q-1.45 1.75 -3.75 1.75q-2.25 0 -3.7 -1.75q-1.45 -1.8 -1.45 -4.45q0 -2.7 1.45 -4.5q1.45 -1.8 3.7 -1.8" style=""></path></g></g></g></svg>