<svg xmlns="http://www.w3.org/2000/svg" version="1.1" xmlns:xlink="http://www.w3.org/1999/xlink" xmlns:svgjs="http://svgjs.dev/svgjs" width="1440" height="560" preserveAspectRatio="none" viewBox="0 0 1440 560">
    <g mask="url(&quot;#SvgjsMask1007&quot;)" fill="none">
        <rect width="1440" height="560" x="0" y="0" fill="rgba(79, 112, 156, 1)"></rect>
        <g>
            <path d="M666.5 451.5L666.5 408.5L666.5 365.5M666.5 494.5L709.5 451.5L752.5 408.5M709.5 623.5L709.5 580.5L709.5 537.5L666.5 494.5L666.5 451.5L709.5 408.5" stroke="rgba(229, 210, 131, 1)" stroke-width="7.17"></path>
            <path d="M702.33 408.5 a7.17 7.17 0 1 0 14.34 0 a7.17 7.17 0 1 0 -14.34 0zM659.33 365.5 a7.17 7.17 0 1 0 14.34 0 a7.17 7.17 0 1 0 -14.34 0zM745.33 408.5 a7.17 7.17 0 1 0 14.34 0 a7.17 7.17 0 1 0 -14.34 0z" fill="rgba(229, 210, 131, 1)"></path>
            <path d="M752.5 623.5L752.5 580.5" stroke="rgba(229, 210, 131, 1)" stroke-width="7.17"></path>
            <path d="M745.33 580.5 a7.17 7.17 0 1 0 14.34 0 a7.17 7.17 0 1 0 -14.34 0z" fill="rgba(229, 210, 131, 1)"></path>
            <path d="M666.5 623.5L666.5 580.5" stroke="rgba(229, 210, 131, 1)" stroke-width="7.17"></path>
            <path d="M659.33 580.5 a7.17 7.17 0 1 0 14.34 0 a7.17 7.17 0 1 0 -14.34 0z" fill="rgba(229, 210, 131, 1)"></path>
            <path d="M795.5 494.5L752.5 451.5M795.5 537.5L752.5 494.5M795.5 623.5L795.5 580.5L795.5 537.5L795.5 494.5L795.5 451.5" stroke="rgba(229, 210, 131, 1)" stroke-width="7.17"></path>
            <path d="M788.33 451.5 a7.17 7.17 0 1 0 14.34 0 a7.17 7.17 0 1 0 -14.34 0zM745.33 451.5 a7.17 7.17 0 1 0 14.34 0 a7.17 7.17 0 1 0 -14.34 0zM745.33 494.5 a7.17 7.17 0 1 0 14.34 0 a7.17 7.17 0 1 0 -14.34 0z" fill="rgba(229, 210, 131, 1)"></path>
            <path d="M623.5 623.5L623.5 580.5L623.5 537.5L623.5 494.5" stroke="rgba(229, 210, 131, 1)" stroke-width="7.17"></path>
            <path d="M616.33 494.5 a7.17 7.17 0 1 0 14.34 0 a7.17 7.17 0 1 0 -14.34 0z" fill="rgba(229, 210, 131, 1)"></path>
            <path d="M838.5 494.5L881.5 451.5L881.5 408.5M838.5 537.5L881.5 494.5M838.5 623.5L838.5 580.5L838.5 537.5L838.5 494.5L838.5 451.5L838.5 408.5L838.5 365.5" stroke="rgba(229, 210, 131, 1)" stroke-width="7.17"></path>
            <path d="M831.33 365.5 a7.17 7.17 0 1 0 14.34 0 a7.17 7.17 0 1 0 -14.34 0zM874.33 408.5 a7.17 7.17 0 1 0 14.34 0 a7.17 7.17 0 1 0 -14.34 0zM874.33 494.5 a7.17 7.17 0 1 0 14.34 0 a7.17 7.17 0 1 0 -14.34 0z" fill="rgba(229, 210, 131, 1)"></path>
            <path d="M580.5 623.5L580.5 580.5L580.5 537.5L580.5 494.5" stroke="rgba(229, 210, 131, 1)" stroke-width="7.17"></path>
            <path d="M573.33 494.5 a7.17 7.17 0 1 0 14.34 0 a7.17 7.17 0 1 0 -14.34 0z" fill="rgba(229, 210, 131, 1)"></path>
            <path d="M881.5 623.5L881.5 580.5" stroke="rgba(229, 210, 131, 1)" stroke-width="7.17"></path>
            <path d="M874.33 580.5 a7.17 7.17 0 1 0 14.34 0 a7.17 7.17 0 1 0 -14.34 0z" fill="rgba(229, 210, 131, 1)"></path>
            <path d="M537.5 623.5L537.5 580.5" stroke="rgba(229, 210, 131, 1)" stroke-width="7.17"></path>
            <path d="M530.33 580.5 a7.17 7.17 0 1 0 14.34 0 a7.17 7.17 0 1 0 -14.34 0z" fill="rgba(229, 210, 131, 1)"></path>
            <path d="M924.5 408.5L967.5 365.5M924.5 537.5L967.5 494.5L967.5 451.5L967.5 408.5L1010.5 365.5M924.5 623.5L924.5 580.5L924.5 537.5L924.5 494.5L924.5 451.5L924.5 408.5L924.5 365.5" stroke="rgba(229, 210, 131, 1)" stroke-width="7.17"></path>
            <path d="M917.33 365.5 a7.17 7.17 0 1 0 14.34 0 a7.17 7.17 0 1 0 -14.34 0zM960.33 365.5 a7.17 7.17 0 1 0 14.34 0 a7.17 7.17 0 1 0 -14.34 0zM1003.33 365.5 a7.17 7.17 0 1 0 14.34 0 a7.17 7.17 0 1 0 -14.34 0z" fill="rgba(229, 210, 131, 1)"></path>
            <path d="M967.5 623.5L967.5 580.5" stroke="rgba(229, 210, 131, 1)" stroke-width="7.17"></path>
            <path d="M960.33 580.5 a7.17 7.17 0 1 0 14.34 0 a7.17 7.17 0 1 0 -14.34 0z" fill="rgba(229, 210, 131, 1)"></path>
            <path d="M451.5 451.5L494.5 408.5L494.5 365.5M451.5 494.5L494.5 451.5M451.5 580.5L494.5 537.5L494.5 494.5L537.5 451.5M451.5 623.5L451.5 580.5L451.5 537.5L451.5 494.5L451.5 451.5L451.5 408.5" stroke="rgba(229, 210, 131, 1)" stroke-width="7.17"></path>
            <path d="M444.33 408.5 a7.17 7.17 0 1 0 14.34 0 a7.17 7.17 0 1 0 -14.34 0zM487.33 365.5 a7.17 7.17 0 1 0 14.34 0 a7.17 7.17 0 1 0 -14.34 0zM487.33 451.5 a7.17 7.17 0 1 0 14.34 0 a7.17 7.17 0 1 0 -14.34 0zM530.33 451.5 a7.17 7.17 0 1 0 14.34 0 a7.17 7.17 0 1 0 -14.34 0z" fill="rgba(229, 210, 131, 1)"></path>
            <path d="M1010.5 623.5L1010.5 580.5" stroke="rgba(229, 210, 131, 1)" stroke-width="7.17"></path>
            <path d="M1003.33 580.5 a7.17 7.17 0 1 0 14.34 0 a7.17 7.17 0 1 0 -14.34 0z" fill="rgba(229, 210, 131, 1)"></path>
            <path d="M408.5 537.5L365.5 494.5L365.5 451.5L365.5 408.5L365.5 365.5M408.5 580.5L365.5 537.5L322.5 494.5L322.5 451.5L322.5 408.5M408.5 623.5L408.5 580.5L408.5 537.5L408.5 494.5L408.5 451.5" stroke="rgba(229, 210, 131, 1)" stroke-width="7.17"></path>
            <path d="M401.33 451.5 a7.17 7.17 0 1 0 14.34 0 a7.17 7.17 0 1 0 -14.34 0zM358.33 365.5 a7.17 7.17 0 1 0 14.34 0 a7.17 7.17 0 1 0 -14.34 0zM315.33 408.5 a7.17 7.17 0 1 0 14.34 0 a7.17 7.17 0 1 0 -14.34 0z" fill="rgba(229, 210, 131, 1)"></path>
        </g>
    </g>
    <defs>
        <mask id="SvgjsMask1007">
            <rect width="1440" height="560" fill="#ffffff"></rect>
        </mask>
    </defs>
</svg>