<svg xmlns="http://www.w3.org/2000/svg" version="1.1" xmlns:xlink="http://www.w3.org/1999/xlink" xmlns:svgjs="http://svgjs.dev/svgjs" width="1920" height="1080" preserveAspectRatio="none" viewBox="0 0 1920 1080"><g mask="url(&quot;#SvgjsMask3902&quot;)" fill="none"><rect width="1920" height="1080" x="0" y="0" fill="url(&quot;#SvgjsLinearGradient3903&quot;)"></rect><path d="M510.38 528.5L637.69 602L637.69 749L510.38 822.5L383.07 749L383.07 602zM765 528.5L892.31 602L892.31 749L765 822.5L637.69 749L637.69 602zM892.31 308L1019.62 381.5L1019.62 528.5L892.31 602L765 528.5L765 381.5zM1146.92 749L1274.23 822.5L1274.23 969.5L1146.92 1043L1019.62 969.5L1019.62 822.5zM1656.16 749L1783.47 822.5L1783.47 969.5L1656.16 1043L1528.85 969.5L1528.85 822.5zM2038.09 528.5L2165.4 602L2165.4 749L2038.09 822.5L1910.78 749L1910.78 602zM1910.78 749L2038.09 822.5L2038.09 969.5L1910.78 1043L1783.47 969.5L1783.47 822.5z" stroke="rgba(0, 0, 0, 0)" stroke-width="2"></path><path d="M495.68 528.5 a14.7 14.7 0 1 0 29.4 0 a14.7 14.7 0 1 0 -29.4 0zM622.99 602 a14.7 14.7 0 1 0 29.4 0 a14.7 14.7 0 1 0 -29.4 0zM622.99 749 a14.7 14.7 0 1 0 29.4 0 a14.7 14.7 0 1 0 -29.4 0zM495.68 822.5 a14.7 14.7 0 1 0 29.4 0 a14.7 14.7 0 1 0 -29.4 0zM368.37 749 a14.7 14.7 0 1 0 29.4 0 a14.7 14.7 0 1 0 -29.4 0zM368.37 602 a14.7 14.7 0 1 0 29.4 0 a14.7 14.7 0 1 0 -29.4 0zM750.3 528.5 a14.7 14.7 0 1 0 29.4 0 a14.7 14.7 0 1 0 -29.4 0zM877.61 602 a14.7 14.7 0 1 0 29.4 0 a14.7 14.7 0 1 0 -29.4 0zM877.61 749 a14.7 14.7 0 1 0 29.4 0 a14.7 14.7 0 1 0 -29.4 0zM750.3 822.5 a14.7 14.7 0 1 0 29.4 0 a14.7 14.7 0 1 0 -29.4 0zM877.61 308 a14.7 14.7 0 1 0 29.4 0 a14.7 14.7 0 1 0 -29.4 0zM1004.92 381.5 a14.7 14.7 0 1 0 29.4 0 a14.7 14.7 0 1 0 -29.4 0zM1004.92 528.5 a14.7 14.7 0 1 0 29.4 0 a14.7 14.7 0 1 0 -29.4 0zM750.3 381.5 a14.7 14.7 0 1 0 29.4 0 a14.7 14.7 0 1 0 -29.4 0zM1132.22 749 a14.7 14.7 0 1 0 29.4 0 a14.7 14.7 0 1 0 -29.4 0zM1259.53 822.5 a14.7 14.7 0 1 0 29.4 0 a14.7 14.7 0 1 0 -29.4 0zM1259.53 969.5 a14.7 14.7 0 1 0 29.4 0 a14.7 14.7 0 1 0 -29.4 0zM1132.22 1043 a14.7 14.7 0 1 0 29.4 0 a14.7 14.7 0 1 0 -29.4 0zM1004.92 969.5 a14.7 14.7 0 1 0 29.4 0 a14.7 14.7 0 1 0 -29.4 0zM1004.92 822.5 a14.7 14.7 0 1 0 29.4 0 a14.7 14.7 0 1 0 -29.4 0zM1641.46 749 a14.7 14.7 0 1 0 29.4 0 a14.7 14.7 0 1 0 -29.4 0zM1768.77 822.5 a14.7 14.7 0 1 0 29.4 0 a14.7 14.7 0 1 0 -29.4 0zM1768.77 969.5 a14.7 14.7 0 1 0 29.4 0 a14.7 14.7 0 1 0 -29.4 0zM1641.46 1043 a14.7 14.7 0 1 0 29.4 0 a14.7 14.7 0 1 0 -29.4 0zM1514.15 969.5 a14.7 14.7 0 1 0 29.4 0 a14.7 14.7 0 1 0 -29.4 0zM1514.15 822.5 a14.7 14.7 0 1 0 29.4 0 a14.7 14.7 0 1 0 -29.4 0zM2023.39 528.5 a14.7 14.7 0 1 0 29.4 0 a14.7 14.7 0 1 0 -29.4 0zM2150.7 602 a14.7 14.7 0 1 0 29.4 0 a14.7 14.7 0 1 0 -29.4 0zM2150.7 749 a14.7 14.7 0 1 0 29.4 0 a14.7 14.7 0 1 0 -29.4 0zM2023.39 822.5 a14.7 14.7 0 1 0 29.4 0 a14.7 14.7 0 1 0 -29.4 0zM1896.08 749 a14.7 14.7 0 1 0 29.4 0 a14.7 14.7 0 1 0 -29.4 0zM1896.08 602 a14.7 14.7 0 1 0 29.4 0 a14.7 14.7 0 1 0 -29.4 0zM2023.39 969.5 a14.7 14.7 0 1 0 29.4 0 a14.7 14.7 0 1 0 -29.4 0zM1896.08 1043 a14.7 14.7 0 1 0 29.4 0 a14.7 14.7 0 1 0 -29.4 0z" fill="rgba(0, 0, 0, 0)"></path><path d="M94.9 113.26L162.45 152.26L162.45 230.26L94.9 269.26L27.35 230.26L27.35 152.26zM27.35 698.26L94.9 737.26L94.9 815.26L27.35 854.26L-40.2 815.26L-40.2 737.26zM27.35 932.26L94.9 971.26L94.9 1049.26L27.35 1088.26L-40.2 1049.26L-40.2 971.26zM230.01 815.26L297.56 854.26L297.56 932.26L230.01 971.26L162.45 932.26L162.45 854.26zM162.45 932.26L230.01 971.26L230.01 1049.26L162.45 1088.26L94.9 1049.26L94.9 971.26zM230.01 1049.26L297.56 1088.26L297.56 1166.26L230.01 1205.26L162.45 1166.26L162.45 1088.26zM297.56 464.26L365.11 503.26L365.11 581.26L297.56 620.26L230.01 581.26L230.01 503.26zM365.11 581.26L432.66 620.26L432.66 698.26L365.11 737.26L297.56 698.26L297.56 620.26zM365.11 1049.26L432.66 1088.26L432.66 1166.26L365.11 1205.26L297.56 1166.26L297.56 1088.26zM432.66 -3.74L500.21 35.26L500.21 113.26L432.66 152.26L365.11 113.26L365.11 35.26zM432.66 230.26L500.21 269.26L500.21 347.26L432.66 386.26L365.11 347.26L365.11 269.26zM500.21 815.26L567.77 854.26L567.77 932.26L500.21 971.26L432.66 932.26L432.66 854.26zM432.66 932.26L500.21 971.26L500.21 1049.26L432.66 1088.26L365.11 1049.26L365.11 971.26zM500.21 1049.26L567.77 1088.26L567.77 1166.26L500.21 1205.26L432.66 1166.26L432.66 1088.26zM567.77 -3.74L635.32 35.26L635.32 113.26L567.77 152.26L500.21 113.26L500.21 35.26zM635.32 113.26L702.87 152.26L702.87 230.26L635.32 269.26L567.77 230.26L567.77 152.26zM567.77 230.26L635.32 269.26L635.32 347.26L567.77 386.26L500.21 347.26L500.21 269.26zM567.77 464.26L635.32 503.26L635.32 581.26L567.77 620.26L500.21 581.26L500.21 503.26zM635.32 1049.26L702.87 1088.26L702.87 1166.26L635.32 1205.26L567.77 1166.26L567.77 1088.26zM770.42 113.26L837.97 152.26L837.97 230.26L770.42 269.26L702.87 230.26L702.87 152.26zM770.42 581.26L837.97 620.26L837.97 698.26L770.42 737.26L702.87 698.26L702.87 620.26zM770.42 1049.26L837.97 1088.26L837.97 1166.26L770.42 1205.26L702.87 1166.26L702.87 1088.26zM837.97 932.26L905.52 971.26L905.52 1049.26L837.97 1088.26L770.42 1049.26L770.42 971.26zM905.52 1049.26L973.08 1088.26L973.08 1166.26L905.52 1205.26L837.97 1166.26L837.97 1088.26zM973.08 -3.74L1040.63 35.26L1040.63 113.26L973.08 152.26L905.52 113.26L905.52 35.26zM1040.63 347.26L1108.18 386.26L1108.18 464.26L1040.63 503.26L973.08 464.26L973.08 386.26zM973.08 698.26L1040.63 737.26L1040.63 815.26L973.08 854.26L905.52 815.26L905.52 737.26zM1040.63 815.26L1108.18 854.26L1108.18 932.26L1040.63 971.26L973.08 932.26L973.08 854.26zM1175.73 113.26L1243.28 152.26L1243.28 230.26L1175.73 269.26L1108.18 230.26L1108.18 152.26zM1108.18 698.26L1175.73 737.26L1175.73 815.26L1108.18 854.26L1040.63 815.26L1040.63 737.26zM1175.73 815.26L1243.28 854.26L1243.28 932.26L1175.73 971.26L1108.18 932.26L1108.18 854.26zM1175.73 1049.26L1243.28 1088.26L1243.28 1166.26L1175.73 1205.26L1108.18 1166.26L1108.18 1088.26zM1243.28 230.26L1310.84 269.26L1310.84 347.26L1243.28 386.26L1175.73 347.26L1175.73 269.26zM1310.84 347.26L1378.39 386.26L1378.39 464.26L1310.84 503.26L1243.28 464.26L1243.28 386.26zM1310.84 581.26L1378.39 620.26L1378.39 698.26L1310.84 737.26L1243.28 698.26L1243.28 620.26zM1378.39 -3.74L1445.94 35.26L1445.94 113.26L1378.39 152.26L1310.84 113.26L1310.84 35.26zM1445.94 113.26L1513.49 152.26L1513.49 230.26L1445.94 269.26L1378.39 230.26L1378.39 152.26zM1378.39 230.26L1445.94 269.26L1445.94 347.26L1378.39 386.26L1310.84 347.26L1310.84 269.26zM1445.94 347.26L1513.49 386.26L1513.49 464.26L1445.94 503.26L1378.39 464.26L1378.39 386.26zM1445.94 581.26L1513.49 620.26L1513.49 698.26L1445.94 737.26L1378.39 698.26L1378.39 620.26zM1445.94 1049.26L1513.49 1088.26L1513.49 1166.26L1445.94 1205.26L1378.39 1166.26L1378.39 1088.26zM1513.49 230.26L1581.04 269.26L1581.04 347.26L1513.49 386.26L1445.94 347.26L1445.94 269.26zM1513.49 464.26L1581.04 503.26L1581.04 581.26L1513.49 620.26L1445.94 581.26L1445.94 503.26zM1581.04 815.26L1648.6 854.26L1648.6 932.26L1581.04 971.26L1513.49 932.26L1513.49 854.26zM1648.6 464.26L1716.15 503.26L1716.15 581.26L1648.6 620.26L1581.04 581.26L1581.04 503.26zM1716.15 581.26L1783.7 620.26L1783.7 698.26L1716.15 737.26L1648.6 698.26L1648.6 620.26zM1648.6 932.26L1716.15 971.26L1716.15 1049.26L1648.6 1088.26L1581.04 1049.26L1581.04 971.26zM1851.25 347.26L1918.8 386.26L1918.8 464.26L1851.25 503.26L1783.7 464.26L1783.7 386.26zM1851.25 581.26L1918.8 620.26L1918.8 698.26L1851.25 737.26L1783.7 698.26L1783.7 620.26zM1783.7 698.26L1851.25 737.26L1851.25 815.26L1783.7 854.26L1716.15 815.26L1716.15 737.26zM1851.25 1049.26L1918.8 1088.26L1918.8 1166.26L1851.25 1205.26L1783.7 1166.26L1783.7 1088.26zM1918.8 698.26L1986.36 737.26L1986.36 815.26L1918.8 854.26L1851.25 815.26L1851.25 737.26zM1918.8 932.26L1986.36 971.26L1986.36 1049.26L1918.8 1088.26L1851.25 1049.26L1851.25 971.26z" stroke="url(&quot;#SvgjsLinearGradient3904&quot;)" stroke-width="2"></path></g><defs><mask id="SvgjsMask3902"><rect width="1920" height="1080" fill="#ffffff"></rect></mask><linearGradient x1="50%" y1="0%" x2="50%" y2="100%" gradientUnits="userSpaceOnUse" id="SvgjsLinearGradient3903"><stop stop-color="rgba(14, 42, 71, 0.63)" offset="1"></stop><stop stop-color="rgba(79, 112, 156, 0.48)" offset="1"></stop></linearGradient><linearGradient x1="210.048" y1="-209.95200000000003" x2="1709.9520000000002" y2="1289.952" gradientUnits="userSpaceOnUse" id="SvgjsLinearGradient3904"><stop stop-color="#0e2a47" offset="0"></stop><stop stop-color="rgba(229, 210, 131, 1)" offset="0"></stop></linearGradient></defs></svg>