<svg width="182" height="50" viewBox="0 0 182 50" fill="none" xmlns="http://www.w3.org/2000/svg">
<path d="M31.1956 1H37.3472V16.0297C37.3472 17.0316 37.5336 17.9055 37.9065 18.6511C38.3026 19.3735 38.8385 19.9444 39.5143 20.3638C40.2134 20.7599 40.9707 21.0512 41.7862 21.2376C42.6251 21.424 43.5455 21.5172 44.5475 21.5172C45.4097 21.5172 46.2252 21.4473 46.9942 21.3075C47.7631 21.1444 48.5088 20.8881 49.2311 20.5386C49.9768 20.189 50.5593 19.688 50.9788 19.0356C51.4215 18.3598 51.6429 17.5676 51.6429 16.6588V1H57.7946V16.6938C57.7946 19.9327 56.5829 22.3794 54.1595 24.0338C51.7361 25.6882 48.5554 26.5155 44.6174 26.5155C40.6095 26.5155 37.3705 25.6766 34.9005 23.9989C32.4305 22.3211 31.1956 19.8628 31.1956 16.6239V1Z" fill="#73808C"/>
<path d="M64.7845 1H80.7929C81.725 1 82.4939 1.0233 83.0998 1.0699C83.7056 1.11651 84.4862 1.30292 85.4416 1.62915C86.397 1.93207 87.1543 2.39811 87.7135 3.02726C88.6456 4.07584 89.1116 5.41569 89.1116 7.04681C89.1116 9.65662 87.7485 11.4043 85.0222 12.2897C88.564 13.1053 90.3466 15.1791 90.3699 18.5113C90.3699 20.2356 90.0087 21.6221 89.2864 22.6707C88.8204 23.3697 88.2844 23.9406 87.6786 24.3833C87.096 24.8261 86.4086 25.1407 85.6164 25.3271C84.8474 25.4902 84.2182 25.595 83.7289 25.6416C83.2396 25.6649 82.5755 25.6766 81.7366 25.6766H64.7845V1ZM70.9013 10.6819H80.1987C82.1793 10.6819 83.1697 9.77313 83.1697 7.95559C83.1464 6.16135 82.1677 5.26423 80.2336 5.26423H70.9013V10.6819ZM70.9013 21.3425H80.5482C82.9949 21.3425 84.2182 20.224 84.2182 17.987C84.2182 15.9831 83.1231 14.9811 80.9327 14.9811H70.9013V21.3425Z" fill="#73808C"/>
<path d="M119.783 25.6766H96.085V1H119.084V5.43899H102.272V10.9965H118.525V15.4005H102.272V21.2726H119.783V25.6766Z" fill="#73808C"/>
<path d="M148.566 25.6766H123.19V21.1677L140.212 5.36909H124.413V1H148.566V5.36909L131.509 21.1677H148.566V25.6766Z" fill="#73808C"/>
<path d="M181.614 25.6766H175.427V15.0859H160.537V25.6766H154.351V1H160.537V10.5071H175.427V1H181.614V25.6766Z" fill="#73808C"/>
<path d="M43.6177 36.3038V46.7753H40.9867V42.8151C39.7678 43.0425 38.8065 43.1562 38.103 43.1562C36.2895 43.1562 34.9963 42.8991 34.2233 42.385C33.4504 41.8708 33.0639 41.0599 33.0639 39.9525V36.3038H35.6949V39.3295C35.6949 40.0711 35.8931 40.5754 36.2895 40.8424C36.6859 41.0995 37.3102 41.228 38.1624 41.228C38.975 41.228 39.9164 41.1143 40.9867 40.8869V36.3038H43.6177Z" fill="#73808C"/>
<path d="M55.9826 46.7753H45.9045V36.3038H55.6853V38.1875H48.5355V40.5458H55.4475V42.4146H48.5355V44.9064H55.9826V46.7753Z" fill="#73808C"/>
<path d="M57.677 46.7753V36.3038H67.6362V38.2319H60.308V40.2491H64.366C65.2381 40.2491 65.9367 40.3183 66.4619 40.4568C66.9871 40.5952 67.4529 40.8968 67.8592 41.3615C68.3249 41.8955 68.5578 42.6074 68.5578 43.4974C68.5578 44.2489 68.4042 44.8718 68.097 45.3662C67.7601 45.9397 67.3042 46.3204 66.7295 46.5083C66.1646 46.6863 65.4709 46.7753 64.6484 46.7753H57.677ZM60.308 44.9509H64.5593C65.0448 44.9509 65.3917 44.8026 65.5998 44.506C65.8178 44.2093 65.9268 43.8682 65.9268 43.4825C65.9268 42.8398 65.689 42.4196 65.2133 42.2218C64.9755 42.1229 64.5494 42.0735 63.935 42.0735H60.308V44.9509Z" fill="#73808C"/>
<path d="M81.7841 46.7753H79.1531V42.2811H72.8209V46.7753H70.1899V36.3038H72.8209V40.3381H79.1531V36.3038H81.7841V46.7753Z" fill="#73808C"/>
<path d="M84.1398 46.7753V36.3038H86.7708V40.2491H90.3829C91.2549 40.2491 91.9536 40.3183 92.4788 40.4568C93.004 40.5952 93.4697 40.8968 93.876 41.3615C94.3418 41.8955 94.5747 42.6074 94.5747 43.4974C94.5747 44.2489 94.4211 44.8718 94.1139 45.3662C93.7769 45.9397 93.3211 46.3204 92.7463 46.5083C92.1815 46.6863 91.4878 46.7753 90.6653 46.7753H84.1398ZM86.7708 44.9509H90.5761C91.0617 44.9509 91.4085 44.8026 91.6166 44.506C91.8347 44.2093 91.9437 43.8682 91.9437 43.4825C91.9437 42.8398 91.7058 42.4196 91.2302 42.2218C90.9923 42.1229 90.5662 42.0735 89.9518 42.0735H86.7708V44.9509ZM98.4989 46.7753H95.8679V36.3038H98.4989V46.7753Z" fill="#73808C"/>
<path d="M100.79 46.7753V36.3038H103.287V43.0079L109.976 37.4903V36.3038H112.473V46.7753H109.976V40.0118L103.287 45.5294V46.7753H100.79ZM103.213 34.0048L104.996 33.5153C105.066 33.6834 105.264 33.8466 105.591 34.0048C105.918 34.1531 106.265 34.2273 106.631 34.2273C107.038 34.2273 107.395 34.1531 107.702 34.0048C108.009 33.8565 108.197 33.6933 108.267 33.5153L110.05 34.0048C109.892 34.5882 109.515 35.0331 108.921 35.3397C108.326 35.6363 107.563 35.7846 106.631 35.7846C104.768 35.7846 103.629 35.1914 103.213 34.0048Z" fill="#73808C"/>
<path d="M131.491 36.3038V44.8471H132.829V49.0001H130.332V46.7753H120.343V36.3038H122.974V44.8471H128.86V36.3038H131.491Z" fill="#73808C"/>
<path d="M144.719 46.7753H134.641V36.3038H144.422V38.1875H137.272V40.5458H144.184V42.4146H137.272V44.9064H144.719V46.7753Z" fill="#73808C"/>
<path d="M158.008 46.7753H155.377V42.2811H149.045V46.7753H146.414V36.3038H149.045V40.3381H155.377V36.3038H158.008V46.7753Z" fill="#73808C"/>
<path d="M169.818 38.2319H165.923V46.7753H163.292V38.2319H159.398V36.3038H169.818V38.2319Z" fill="#73808C"/>
<path d="M171.149 36.3038H177.675C178.497 36.3038 179.191 36.3977 179.756 36.5856C180.33 36.7636 180.786 37.1393 181.123 37.7128C181.43 38.2072 181.584 38.8302 181.584 39.5817C181.584 40.4716 181.351 41.1835 180.885 41.7175C180.479 42.1822 180.013 42.4838 179.488 42.6223C178.963 42.7607 178.264 42.8299 177.392 42.8299H173.736V46.7753H171.149V36.3038ZM173.736 38.1133V40.9907H176.961C177.576 40.9907 178.002 40.9413 178.24 40.8424C178.725 40.6446 178.968 40.2244 178.968 39.5817C178.968 39.196 178.859 38.8549 178.641 38.5583C178.423 38.2616 178.071 38.1133 177.585 38.1133H173.736Z" fill="#73808C"/>
<path d="M27.0883 25.6766H19.7832L13.2121 15.75H6.15167V25.6766H0V1H16.987C18.7346 1 20.0978 1.15146 21.0765 1.45439C22.6377 1.92042 23.8494 2.78259 24.7116 4.04088C25.5737 5.27588 26.0048 6.72059 26.0048 8.37502C26.0048 9.56341 25.7834 10.6469 25.3407 11.6256C24.8281 12.7907 24.0941 13.6412 23.1387 14.1772C22.2066 14.7131 21.0182 15.1092 19.5735 15.3656L27.0883 25.6766ZM6.15167 5.33413V11.3809H16.3229C18.6065 11.3809 19.7483 10.4023 19.7483 8.44492C19.7483 6.37106 18.5249 5.33413 16.0782 5.33413H6.15167Z" fill="#7BB933"/>
<path d="M26.2953 41.7768L29.3723 36.3038H32.2114L27.5885 44.0313C27.0732 44.8718 26.5926 45.4849 26.1467 45.8705C25.4035 46.5923 24.472 46.9533 23.3522 46.9533C22.6684 46.9533 22.0441 46.8692 21.4793 46.7011V44.7729C21.945 44.941 22.4306 45.0251 22.936 45.0251C23.372 45.0251 23.7287 44.941 24.0062 44.7729C24.3134 44.6048 24.581 44.2983 24.8089 43.8533L19.5469 36.3038H22.7427L26.2953 41.7768Z" fill="#7BB933"/>
</svg>
